<?xml version="1.0" encoding="UTF-8"?>
<svg version="1.1" xmlns="http://www.w3.org/2000/svg" width="162" height="176">
<path d="M0 0 C3.26606502 1.55549283 6.40093722 3.29071108 9.52734375 5.10546875 C10.2867627 5.54584473 11.04618164 5.9862207 11.82861328 6.43994141 C16.39884974 9.10435998 20.94952248 11.80060049 25.4921875 14.51171875 C31.75284728 18.24733832 38.04246606 21.93216125 44.33984375 25.60546875 C45.32307617 26.18039063 46.30630859 26.7553125 47.31933594 27.34765625 C51.5262681 29.80182003 55.73923262 32.2372488 60.00390625 34.58984375 C66.4988919 38.17527823 72.87518724 41.96639546 79.27099609 45.72485352 C84.67412866 48.89039613 90.09937686 51.9809357 95.61621094 54.94335938 C101.74571633 58.25358627 106.56664944 61.22100863 110.52734375 67.10546875 C111.12546875 67.88921875 111.72359375 68.67296875 112.33984375 69.48046875 C114.37242619 73.97354573 115.22319477 78.41027113 113.97265625 83.25390625 C109.85147036 92.77275154 99.08166234 97.26683648 90.52734375 102.10546875 C88.80246933 103.09070738 87.07760229 104.07595933 85.35327148 105.06214905 C84.17476118 105.73591129 82.99588536 106.40903459 81.81665039 107.08152771 C75.69776288 110.57183085 69.61042018 114.11566717 63.52734375 117.66796875 C62.08875 118.50618164 62.08875 118.50618164 60.62109375 119.36132812 C55.21401221 122.51672473 49.84652769 125.72376197 44.5234375 129.01928711 C42.52734375 130.10546875 42.52734375 130.10546875 40.52734375 130.10546875 C40.19734375 130.76546875 39.86734375 131.42546875 39.52734375 132.10546875 C35.7142145 134.35868149 32.97155978 135.49760546 28.52734375 135.10546875 C28.19734375 134.11546875 27.86734375 133.12546875 27.52734375 132.10546875 C29.19401042 130.43880208 30.86067708 128.77213542 32.52734375 127.10546875 C28.76398976 128.73293454 28.76398976 128.73293454 25.52734375 131.10546875 C24.96500346 133.20029364 24.89536125 134.94296698 24.98828125 137.10546875 C24.239717 140.35347635 22.24080393 141.25458858 19.52734375 143.10546875 C16.59087025 144.89456895 13.60223771 146.5730373 10.58984375 148.23046875 C9.80416016 148.67261719 9.01847656 149.11476562 8.20898438 149.5703125 C0.81751614 153.66500034 -5.02578108 156.19448089 -13.47265625 154.10546875 C-17.89341989 151.81322094 -20.33508419 149.60562045 -22.47265625 145.10546875 C-23.42974301 141.99716819 -23.60877833 139.16706968 -23.63328552 135.92175293 C-23.64333115 134.87341278 -23.65337677 133.82507263 -23.66372681 132.7449646 C-23.6724733 131.02752548 -23.6724733 131.02752548 -23.68139648 129.27539062 C-23.69118027 128.06513214 -23.70096405 126.85487366 -23.71104431 125.60794067 C-23.74099284 121.59670979 -23.76269651 117.58551449 -23.78125 113.57421875 C-23.78454732 112.89003939 -23.78784464 112.20586002 -23.79124188 111.50094795 C-23.82203186 105.03852076 -23.84871822 98.57608863 -23.86566067 92.11360931 C-23.88752421 83.87287338 -23.92940818 75.63279247 -23.99909824 67.39231825 C-24.04652664 61.5848834 -24.07061951 55.77762402 -24.07785755 49.9700017 C-24.08278755 46.50856882 -24.09760965 43.04787495 -24.13760185 39.58665466 C-24.18175197 35.71448269 -24.17752982 31.84313426 -24.16967773 27.97070312 C-24.18967834 26.84193756 -24.20967896 25.713172 -24.23028564 24.55020142 C-24.15536531 16.27300299 -21.93807087 10.0815793 -17.47265625 3.10546875 C-12.31367398 -1.93886947 -6.62617305 -2.39714633 0 0 Z M96.1015625 89.10546875 C94.99989746 89.74218506 93.89823242 90.37890137 92.76318359 91.03491211 C91.58027798 91.72488226 90.39750007 92.41507138 89.21484375 93.10546875 C88.02435364 93.79648167 86.83376128 94.48731849 85.64306641 95.17797852 C77.86252883 99.70023536 70.12960263 104.2886529 62.52734375 109.10546875 C63.18734375 109.43546875 63.84734375 109.76546875 64.52734375 110.10546875 C66.75146684 109.15585774 66.75146684 109.15585774 69.2265625 107.67578125 C70.18224121 107.13155518 71.13791992 106.5873291 72.12255859 106.02661133 C73.1430127 105.43388428 74.1634668 104.84115723 75.21484375 104.23046875 C76.76486084 103.34041138 76.76486084 103.34041138 78.34619141 102.43237305 C81.41234627 100.66648348 84.4708606 98.88803539 87.52734375 97.10546875 C88.36442871 96.61997559 89.20151367 96.13448242 90.06396484 95.63427734 C92.18158465 94.40348145 94.29364869 93.16397976 96.40234375 91.91796875 C97.01940186 91.55654785 97.63645996 91.19512695 98.2722168 90.82275391 C101.44846113 89.01070147 101.44846113 89.01070147 103.52734375 86.10546875 C100.52313593 86.10546875 98.6887243 87.60544645 96.1015625 89.10546875 Z M60.52734375 110.10546875 C58.07311629 111.17012994 58.07311629 111.17012994 55.3359375 112.78125 C54.30919922 113.36197266 53.28246094 113.94269531 52.22460938 114.54101562 C50.61102539 115.47010742 50.61102539 115.47010742 48.96484375 116.41796875 C47.88525391 117.02576172 46.80566406 117.63355469 45.69335938 118.25976562 C40.31474892 120.86368787 40.31474892 120.86368787 36.52734375 125.10546875 C42.61616791 123.50740527 47.59381925 120.24434045 52.90234375 116.98046875 C53.82917969 116.41714844 54.75601563 115.85382813 55.7109375 115.2734375 C57.9863753 113.88940832 60.25832005 112.49997953 62.52734375 111.10546875 C61.86734375 110.77546875 61.20734375 110.44546875 60.52734375 110.10546875 Z M16.52734375 135.10546875 C14.04115674 136.32833593 14.04115674 136.32833593 11.40234375 138.04296875 C10.49226563 138.60886719 9.5821875 139.17476562 8.64453125 139.7578125 C7.94585937 140.20253906 7.2471875 140.64726562 6.52734375 141.10546875 C7.51734375 141.43546875 8.50734375 141.76546875 9.52734375 142.10546875 C11.87703447 140.90373101 11.87703447 140.90373101 14.21484375 139.16796875 C15.02308594 138.60207031 15.83132812 138.03617188 16.6640625 137.453125 C17.27894531 137.00839844 17.89382812 136.56367188 18.52734375 136.10546875 C17.86734375 135.77546875 17.20734375 135.44546875 16.52734375 135.10546875 Z M4.52734375 142.10546875 C3.64046875 142.55921875 2.75359375 143.01296875 1.83984375 143.48046875 C-3.72344627 146.20962989 -8.4718442 146.42272018 -14.47265625 145.10546875 C-13.06322895 147.35452223 -13.06322895 147.35452223 -10.47265625 149.10546875 C-3.75169919 149.84490607 1.28301369 146.97798495 6.52734375 143.10546875 C5.86734375 142.77546875 5.20734375 142.44546875 4.52734375 142.10546875 Z " fill="#262751" transform="translate(38.47265625,10.89453125)"/>
<path d="M0 0 C0.67675781 -0.00773438 1.35351562 -0.01546875 2.05078125 -0.0234375 C5.74919257 -0.00884811 7.34603337 0.14735558 10.5 2.25 C10.5 2.91 10.5 3.57 10.5 4.25 C12.046875 4.1571875 12.046875 4.1571875 13.625 4.0625 C17.73468973 4.26135595 19.98882496 5.19467803 23.5 7.25 C23.5 8.24 23.5 9.23 23.5 10.25 C24.4075 10.4975 25.315 10.745 26.25 11 C29.60351489 12.28981342 31.17708236 13.56971042 33.5 16.25 C27.34164308 18.19474429 23.03466787 15.88110793 17.5 13.25 C15.47779127 12.19012007 13.45698801 11.12755482 11.4375 10.0625 C6.60971761 7.62064867 2.01427057 5.51398507 -3.5 6.25 C-6.05151968 8.09985177 -7.10976715 9.4695343 -8.5 12.25 C-8.60572774 13.95120272 -8.64822642 15.65649154 -8.66062927 17.3609314 C-8.6706749 18.44332596 -8.68072052 19.52572052 -8.69107056 20.64091492 C-8.69690155 21.83368546 -8.70273254 23.02645599 -8.70874023 24.25537109 C-8.71852402 25.50744858 -8.7283078 26.75952606 -8.73838806 28.04954529 C-8.76839023 32.20749984 -8.79003798 36.36542005 -8.80859375 40.5234375 C-8.81189107 41.23052495 -8.81518839 41.93761239 -8.81858563 42.66612673 C-8.84936212 49.33258226 -8.87607331 55.99904227 -8.89300442 62.66554832 C-8.91492587 71.19724764 -8.95692943 79.7283188 -9.02644199 88.25976694 C-9.07364604 94.25641969 -9.09793291 100.25290272 -9.1052013 106.24973547 C-9.11016244 109.83277234 -9.12528474 113.41510129 -9.1649456 116.99793625 C-9.20860176 120.99429257 -9.20492327 124.98925301 -9.19702148 128.98583984 C-9.21702209 130.17456192 -9.23702271 131.363284 -9.25762939 132.58802795 C-9.23081812 135.59753477 -9.16326175 138.31466822 -8.5 141.25 C-5.67486144 143.92300566 -4.05348932 145.02335518 -0.23754883 145.58007812 C5.56203801 144.75204893 9.85930595 142.82965674 14.8125 139.75 C16.18110363 138.9229486 17.55212421 138.09988071 18.92578125 137.28125 C19.51786377 136.91580078 20.10994629 136.55035156 20.7199707 136.17382812 C22.5 135.25 22.5 135.25 26.5 134.25 C26.5 126.99 26.5 119.73 26.5 112.25 C23.53 111.755 23.53 111.755 20.5 111.25 C17.98046875 109.9453125 17.98046875 109.9453125 15.6875 108.375 C14.91792969 107.86195312 14.14835937 107.34890625 13.35546875 106.8203125 C11.5 105.25 11.5 105.25 10.5 102.25 C9.84 102.25 9.18 102.25 8.5 102.25 C3.50387865 95.25543011 4.28265601 87.35737542 4.25976562 79.12255859 C4.25009248 77.02010024 4.21904574 74.9186344 4.1875 72.81640625 C4.11353435 63.63628823 4.24410325 54.94344747 10.875 47.9375 C11.78958984 46.96683594 11.78958984 46.96683594 12.72265625 45.9765625 C18.21723378 40.6389729 21.39282446 39.08241481 28.9375 39.125 C29.61876953 39.12113281 30.30003906 39.11726563 31.00195312 39.11328125 C34.10648046 39.1193626 36.53329065 39.26109688 39.5 40.25 C39.5 40.91 39.5 41.57 39.5 42.25 C40.5209375 42.5284375 40.5209375 42.5284375 41.5625 42.8125 C46.88796057 45.41857645 51.15914369 49.77958696 53.5 55.25 C53.74723816 57.27407837 53.74723816 57.27407837 53.74291992 59.43603516 C53.74753487 60.65717514 53.74753487 60.65717514 53.75224304 61.90298462 C53.74146477 63.20784317 53.74146477 63.20784317 53.73046875 64.5390625 C53.73001053 65.4386972 53.72955231 66.33833191 53.7290802 67.26522827 C53.72606362 69.16316043 53.71819511 71.06109023 53.70581055 72.95898438 C53.68752397 75.87118243 53.68530116 78.78306295 53.68554688 81.6953125 C53.68063258 83.53906526 53.67480464 85.38281586 53.66796875 87.2265625 C53.66685593 88.10051666 53.6657431 88.97447083 53.66459656 89.87490845 C53.61608018 96.01783963 53.61608018 96.01783963 52.5 98.25 C51.84 98.25 51.18 98.25 50.5 98.25 C50.2215625 99.301875 50.2215625 99.301875 49.9375 100.375 C47.06328822 106.12342357 42.73899994 108.92957588 36.75390625 110.9296875 C35.33808984 111.37666731 33.92077706 111.81904802 32.5 112.25 C32.51683838 112.97590332 32.53367676 113.70180664 32.55102539 114.44970703 C32.60149128 117.75931847 32.58263769 121.06509594 32.5625 124.375 C32.59021484 125.51710938 32.61792969 126.65921875 32.64648438 127.8359375 C32.52603522 136.12283946 32.52603522 136.12283946 29.68676758 139.24194336 C27.36018853 140.81095074 25.03279817 142.04630402 22.5 143.25 C21.22492271 144.00767054 19.95488885 144.77392961 18.69140625 145.55078125 C5.03356434 153.27307664 5.03356434 153.27307664 -2.5 152.25 C-7.17918784 150.90727653 -9.86570293 149.03067332 -12.9375 145.25 C-15.12781533 141.04459458 -15.62509281 137.77017161 -15.65390015 133.05282593 C-15.66250061 132.00159546 -15.67110107 130.95036499 -15.67996216 129.86727905 C-15.68422211 128.71917755 -15.68848206 127.57107605 -15.69287109 126.38818359 C-15.70104858 125.17471252 -15.70922607 123.96124146 -15.71765137 122.71099854 C-15.74248847 118.69014818 -15.7591753 114.66933538 -15.7734375 110.6484375 C-15.77880028 109.26060607 -15.78417779 107.8727747 -15.78956985 106.48494339 C-15.81119169 100.70814349 -15.82992496 94.93134631 -15.84119225 89.15451622 C-15.85740988 80.89584475 -15.89054171 72.63764529 -15.94759309 64.3791517 C-15.98640134 58.56155323 -16.00583788 52.74408041 -16.01111281 46.92635596 C-16.01475223 43.45726418 -16.02662076 39.98867655 -16.05921555 36.5197258 C-16.09512572 32.64240731 -16.09089771 28.76567235 -16.08349609 24.88818359 C-16.09990143 23.75222748 -16.11630676 22.61627136 -16.13320923 21.44589233 C-16.07605944 14.10747192 -14.78582359 8.33113244 -10.5 2.25 C-6.87653931 -0.16564046 -4.18396018 -0.04781669 0 0 Z " fill="#131418" transform="translate(30.5,13.75)"/>
<path d="M0 0 C3.25864771 1.5658437 6.39483052 3.29951373 9.51953125 5.11328125 C10.2789502 5.55365723 11.03836914 5.9940332 11.82080078 6.44775391 C16.39103724 9.11217248 20.94170998 11.80841299 25.484375 14.51953125 C31.74503478 18.25515082 38.03465356 21.93997375 44.33203125 25.61328125 C45.31526367 26.18820313 46.29849609 26.763125 47.31152344 27.35546875 C51.5184556 29.80963253 55.73142012 32.2450613 59.99609375 34.59765625 C66.4910794 38.18309073 72.86737474 41.97420796 79.26318359 45.73266602 C84.66631616 48.89820863 90.09156436 51.9887482 95.60839844 54.95117188 C101.73790383 58.26139877 106.55883694 61.22882113 110.51953125 67.11328125 C111.11765625 67.89703125 111.71578125 68.68078125 112.33203125 69.48828125 C114.36461369 73.98135823 115.21538227 78.41808363 113.96484375 83.26171875 C109.84365786 92.78056404 99.07384984 97.27464898 90.51953125 102.11328125 C88.79465683 103.09851988 87.06978979 104.08377183 85.34545898 105.06996155 C84.16694868 105.74372379 82.98807286 106.41684709 81.80883789 107.08934021 C75.68995038 110.57964335 69.60260768 114.12347967 63.51953125 117.67578125 C62.0809375 118.51399414 62.0809375 118.51399414 60.61328125 119.36914062 C55.20619971 122.52453723 49.83871519 125.73157447 44.515625 129.02709961 C42.51953125 130.11328125 42.51953125 130.11328125 40.51953125 130.11328125 C40.18953125 130.77328125 39.85953125 131.43328125 39.51953125 132.11328125 C35.706402 134.36649399 32.96374728 135.50541796 28.51953125 135.11328125 C28.18953125 134.12328125 27.85953125 133.13328125 27.51953125 132.11328125 C30.359521 129.04385186 33.1181571 127.01409383 36.78125 125.01171875 C37.80895508 124.44437012 38.83666016 123.87702148 39.89550781 123.29248047 C40.98831055 122.69709473 42.08111328 122.10170898 43.20703125 121.48828125 C45.48776297 120.22928344 47.76770989 118.96886289 50.046875 117.70703125 C51.1591748 117.09214844 52.27147461 116.47726563 53.41748047 115.84375 C57.40516295 113.61923454 61.34563937 111.32302346 65.26953125 108.98828125 C69.79330571 106.29756453 74.33220449 103.64078748 78.91015625 101.04296875 C79.84118164 100.51461426 80.77220703 99.98625977 81.73144531 99.44189453 C83.52862622 98.42433133 85.32734278 97.40947324 87.12792969 96.39794922 C92.13498488 93.56217233 96.917967 90.55913024 101.609375 87.22363281 C103.51953125 86.11328125 103.51953125 86.11328125 106.51953125 86.11328125 C107.5446132 82.08617358 108.14625517 79.55173984 106.4609375 75.68359375 C103.49677672 70.98713121 100.90384327 68.03624983 95.51953125 66.11328125 C95.51953125 65.45328125 95.51953125 64.79328125 95.51953125 64.11328125 C94.82085937 64.01789063 94.1221875 63.9225 93.40234375 63.82421875 C89.96965822 62.97767571 87.43141647 61.5421454 84.39453125 59.73828125 C82.84378906 58.82949219 82.84378906 58.82949219 81.26171875 57.90234375 C78.98665048 56.41803995 77.39361277 55.02560933 75.51953125 53.11328125 C73.20699113 52.06609327 70.87101645 51.0698176 68.51953125 50.11328125 C66.51228545 49.12790604 64.50972872 48.13265068 62.51953125 47.11328125 C62.51953125 46.45328125 62.51953125 45.79328125 62.51953125 45.11328125 C61.40578125 44.82453125 60.29203125 44.53578125 59.14453125 44.23828125 C55.51953125 43.11328125 55.51953125 43.11328125 53.51953125 41.11328125 C51.45079091 40.47075775 51.45079091 40.47075775 49.51953125 40.11328125 C49.51953125 39.45328125 49.51953125 38.79328125 49.51953125 38.11328125 C48.81828125 37.84515625 48.11703125 37.57703125 47.39453125 37.30078125 C42.57370039 35.3095685 37.84602776 33.04002889 33.51953125 30.11328125 C33.51953125 29.45328125 33.51953125 28.79328125 33.51953125 28.11328125 C32.73578125 27.90703125 31.95203125 27.70078125 31.14453125 27.48828125 C26.2267937 25.62293252 21.96111022 22.9046293 17.51953125 20.11328125 C20.51953125 19.11328125 20.51953125 19.11328125 24.51953125 18.11328125 C21.54953125 16.46328125 18.57953125 14.81328125 15.51953125 13.11328125 C15.51953125 12.12328125 15.51953125 11.13328125 15.51953125 10.11328125 C12.23095361 8.91014309 9.32325715 8.08999449 5.83203125 7.67578125 C2.51953125 7.11328125 2.51953125 7.11328125 1.28515625 5.59375 C-1.49760366 3.26041813 -4.58759213 3.75867193 -8.04296875 3.86328125 C-8.72810547 3.8684375 -9.41324219 3.87359375 -10.11914062 3.87890625 C-13.92738361 3.89956003 -13.92738361 3.89956003 -17.48046875 5.11328125 C-16.51438706 2.69807703 -15.91427063 1.37467469 -13.65234375 0.01171875 C-9.04249165 -1.89523446 -4.67783484 -1.67223387 0 0 Z " fill="#1B1B20" transform="translate(38.48046875,10.88671875)"/>
<path d="M0 0 C0.99 0 1.98 0 3 0 C3.33 3.96 3.66 7.92 4 12 C5.32 12 6.64 12 8 12 C8.33 8.04 8.66 4.08 9 0 C9.99 0 10.98 0 12 0 C12 3.3 12 6.6 12 10 C13.65 10 15.3 10 17 10 C17 7.69 17 5.38 17 3 C20.81312629 4.22564773 22.39010518 6.58863306 24.25 10.046875 C25.40498408 13.05464603 25.25867923 15.83117937 25 19 C21.37 19 17.74 19 14 19 C14.33 20.32 14.66 21.64 15 23 C18.3 23.33 21.6 23.66 25 24 C25 25.32 25 26.64 25 28 C20.38 28 15.76 28 11 28 C11.33 29.32 11.66 30.64 12 32 C16.29 32.33 20.58 32.66 25 33 C25 34.32 25 35.64 25 37 C21.37 37 17.74 37 14 37 C14.33 38.32 14.66 39.64 15 41 C17.97 41.33 20.94 41.66 24 42 C24.602537 48.02536998 24.602537 48.02536998 22.88671875 50.80078125 C21.65378147 52.25599455 20.33191067 53.63479157 19 55 C18.6596875 54.0409375 18.6596875 54.0409375 18.3125 53.0625 C17.14749104 50.72806339 17.14749104 50.72806339 14.375 50.25 C13.59125 50.1675 12.8075 50.085 12 50 C12 52.64 12 55.28 12 58 C11.01 58 10.02 58 9 58 C9 54.7 9 51.4 9 48 C7.02 48 5.04 48 3 48 C3 51.3 3 54.6 3 58 C2.01 58 1.02 58 0 58 C-0.33 55.69 -0.66 53.38 -1 51 C-2.32 51 -3.64 51 -5 51 C-5.66 52.32 -6.32 53.64 -7 55 C-9.46313739 53.17251097 -10.83428618 51.77023784 -11.48828125 48.73046875 C-11.72436858 46.49292469 -11.86787753 44.24608199 -12 42 C-7.545 41.505 -7.545 41.505 -3 41 C-2.67 39.68 -2.34 38.36 -2 37 C-5.63 37 -9.26 37 -13 37 C-13 35.68 -13 34.36 -13 33 C-6.565 32.505 -6.565 32.505 0 32 C0 31.01 0 30.02 0 29 C-3.96 28.67 -7.92 28.34 -12 28 C-12.33 26.68 -12.66 25.36 -13 24 C-9.7 23.67 -6.4 23.34 -3 23 C-3 22.01 -3 21.02 -3 20 C-6.3 19.67 -9.6 19.34 -13 19 C-13.69599506 12.50404609 -12.56216028 9.5611675 -8.5078125 4.46875 C-7 3 -7 3 -5 3 C-5 5.31 -5 7.62 -5 10 C-3.35 10 -1.7 10 0 10 C0 6.7 0 3.4 0 0 Z " fill="#D7DAE3" transform="translate(54,59)"/>
<path d="M0 0 C2.93359375 -0.36328125 2.93359375 -0.36328125 6.4375 -0.3125 C8.16806641 -0.30669922 8.16806641 -0.30669922 9.93359375 -0.30078125 C13 0 13 0 16 2 C16 2.66 16 3.32 16 4 C17.546875 3.9071875 17.546875 3.9071875 19.125 3.8125 C23.23468973 4.01135595 25.48882496 4.94467803 29 7 C29 7.99 29 8.98 29 10 C29.9075 10.2475 30.815 10.495 31.75 10.75 C35.10351489 12.03981342 36.67708236 13.31971042 39 16 C32.84355865 17.94413937 28.53275343 15.63352812 23 13 C21.04098984 11.95960677 19.08267743 10.91789884 17.125 9.875 C11.88515273 7.17012423 7.14052542 6.05811172 1.30078125 5.421875 C0.16189453 5.21304687 0.16189453 5.21304687 -1 5 C-1.33 4.34 -1.66 3.68 -2 3 C-1.34 2.01 -0.68 1.02 0 0 Z " fill="#070711" transform="translate(25,14)"/>
<path d="M0 0 C9.51758056 4.58058315 18.43525498 10.44795912 27.37890625 16.04296875 C25.37890625 17.04296875 25.37890625 17.04296875 22.99609375 16.265625 C21.63871094 15.69134766 21.63871094 15.69134766 20.25390625 15.10546875 C18.88878906 14.53505859 18.88878906 14.53505859 17.49609375 13.953125 C16.79742187 13.65277344 16.09875 13.35242187 15.37890625 13.04296875 C15.37890625 12.05296875 15.37890625 11.06296875 15.37890625 10.04296875 C12.09032861 8.83983059 9.18263215 8.01968199 5.69140625 7.60546875 C2.37890625 7.04296875 2.37890625 7.04296875 1.14453125 5.5234375 C-1.63822866 3.19010563 -4.72821713 3.68835943 -8.18359375 3.79296875 C-8.86873047 3.798125 -9.55386719 3.80328125 -10.25976562 3.80859375 C-14.06800861 3.82924753 -14.06800861 3.82924753 -17.62109375 5.04296875 C-16.65501206 2.62776453 -16.05489563 1.30436219 -13.79296875 -0.05859375 C-9.11338659 -1.99439213 -4.73140508 -1.72756221 0 0 Z " fill="#32314B" transform="translate(38.62109375,10.95703125)"/>
<path d="M0 0 C9.53035038 3.61735927 18.33424342 9.13237645 27.125 14.25 C27.85944336 14.67410156 28.59388672 15.09820312 29.35058594 15.53515625 C30.38747559 16.14423828 30.38747559 16.14423828 31.4453125 16.765625 C32.36594482 17.30364746 32.36594482 17.30364746 33.30517578 17.85253906 C35.10088565 19.06830345 36.51816177 20.42246798 38 22 C32.31497465 20.35433477 27.23318364 17.70967216 22 15 C22 14.34 22 13.68 22 13 C21.030625 12.938125 20.06125 12.87625 19.0625 12.8125 C14.11774397 12.14374201 10.18883776 9.57409304 6 7 C6 6.01 6 5.02 6 4 C5.195625 3.71125 4.39125 3.4225 3.5625 3.125 C1 2 1 2 0 0 Z " fill="#676579" transform="translate(80,36)"/>
<path d="M0 0 C0.99 0 1.98 0 3 0 C3 3.3 3 6.6 3 10 C4.65 10 6.3 10 8 10 C8 7.69 8 5.38 8 3 C9.32 3.66 10.64 4.32 12 5 C12 5.66 12 6.32 12 7 C11.34 7 10.68 7 10 7 C10.33 8.65 10.66 10.3 11 12 C9.01432292 12.22786458 7.02864583 12.45572917 5.04296875 12.68359375 C2.80603607 12.97170735 2.80603607 12.97170735 0 14 C-1.99961564 14.03920815 -4.00049364 14.04443347 -6 14 C-5.67 13.34 -5.34 12.68 -5 12 C-3.68 12 -2.36 12 -1 12 C-0.67 8.04 -0.34 4.08 0 0 Z " fill="#CDD0D7" transform="translate(63,59)"/>
<path d="M0 0 C1.640625 0.8125 1.640625 0.8125 3.828125 2.3125 C-1.1135787 3.95555377 -6.32175033 3.17778593 -11.4453125 2.95703125 C-15.78592121 3.37107254 -17.73903958 4.71561442 -21.171875 7.3125 C-22.161875 7.6425 -23.151875 7.9725 -24.171875 8.3125 C-22.96664793 4.6968188 -20.6194596 2.42020464 -17.5 0.296875 C-12.18275673 -1.95135538 -5.46647913 -1.73039627 0 0 Z " fill="#9497A6" transform="translate(67.171875,50.6875)"/>
<path d="M0 0 C5.77272398 1.59410188 10.61754002 4.44161202 15.75 7.4375 C16.61238281 7.92798828 17.47476563 8.41847656 18.36328125 8.92382812 C19.18699219 9.40142578 20.01070312 9.87902344 20.859375 10.37109375 C21.60670898 10.80349365 22.35404297 11.23589355 23.12402344 11.68139648 C25 13 25 13 27 16 C24.5625 15.625 24.5625 15.625 22 15 C21.67 14.34 21.34 13.68 21 13 C19.11235097 12.31527335 19.11235097 12.31527335 16.9375 11.875 C15.83728516 11.62363281 15.83728516 11.62363281 14.71484375 11.3671875 C14.14894531 11.24601562 13.58304688 11.12484375 13 11 C13 10.34 13 9.68 13 9 C11.9171875 8.9071875 11.9171875 8.9071875 10.8125 8.8125 C7.15130298 7.75482086 5.59192164 5.72833857 3 3 C2.01 2.67 1.02 2.34 0 2 C0 1.34 0 0.68 0 0 Z " fill="#4D5166" transform="translate(118,58)"/>
<path d="M0 0 C3.0256349 0.63539181 5.42227761 1.63899325 8.1171875 3.14453125 C9.27541016 3.78938477 9.27541016 3.78938477 10.45703125 4.44726562 C11.65392578 5.12305664 11.65392578 5.12305664 12.875 5.8125 C14.06029297 6.47088867 14.06029297 6.47088867 15.26953125 7.14257812 C19.64581425 9.59285971 23.87116016 12.15229535 28 15 C26 16 26 16 23.6171875 15.22265625 C22.71226563 14.83980469 21.80734375 14.45695312 20.875 14.0625 C19.96492188 13.68222656 19.05484375 13.30195313 18.1171875 12.91015625 C17.41851562 12.60980469 16.71984375 12.30945312 16 12 C16 11.01 16 10.02 16 9 C15.21625 8.79375 14.4325 8.5875 13.625 8.375 C8.72987597 6.51822882 4.33154707 3.93620681 0 1 C0 0.67 0 0.34 0 0 Z " fill="#9694A6" transform="translate(38,12)"/>
<path d="M0 0 C0.33 0 0.66 0 1 0 C1 2.66666667 1 5.33333333 1 8 C-2.63 8 -6.26 8 -10 8 C-10.33 6.68 -10.66 5.36 -11 4 C-7.7 3.67 -4.4 3.34 -1 3 C-0.67 2.01 -0.34 1.02 0 0 Z " fill="#B3B5BB" transform="translate(52,79)"/>
<path d="M0 0 C0.66 0.33 1.32 0.66 2 1 C0.35 1.66 -1.3 2.32 -3 3 C-3.66 10.59 -4.32 18.18 -5 26 C-5.33 26 -5.66 26 -6 26 C-6 18.08 -6 10.16 -6 2 C-4.02 1.34 -2.04 0.68 0 0 Z " fill="#252538" transform="translate(68,124)"/>
<path d="M0 0 C0.99 0 1.98 0 3 0 C3 3.96 3 7.92 3 12 C2.67 11.34 2.34 10.68 2 10 C1.34 10 0.68 10 0 10 C0 6.7 0 3.4 0 0 Z " fill="#CFD1D5" transform="translate(54,59)"/>
<path d="M0 0 C4.2272474 0.07512071 7.11001708 1.07251051 10.75 3.3125 C7 4.4375 7 4.4375 4.75 3.3125 C2.87943209 3.0849985 1.00314042 2.90287189 -0.875 2.75 C-1.87789062 2.66621094 -2.88078125 2.58242188 -3.9140625 2.49609375 C-4.68492188 2.43550781 -5.45578125 2.37492187 -6.25 2.3125 C-3.86629091 -0.07120909 -3.2563401 0.01661398 0 0 Z " fill="#C5C7DB" transform="translate(60.25,49.6875)"/>
<path d="M0 0 C1.32 0.66 2.64 1.32 4 2 C4 2.66 4 3.32 4 4 C3.34 4 2.68 4 2 4 C2.33 5.65 2.66 7.3 3 9 C1.02 9 -0.96 9 -3 9 C-3.33 8.34 -3.66 7.68 -4 7 C-2.68 7 -1.36 7 0 7 C0 4.69 0 2.38 0 0 Z " fill="#A8A9B2" transform="translate(71,62)"/>
<path d="M0 0 C0.33 0 0.66 0 1 0 C1.02696365 1.79158489 1.04637917 3.58328473 1.0625 5.375 C1.07410156 6.37273437 1.08570313 7.37046875 1.09765625 8.3984375 C1 11 1 11 0 13 C-1.32 13 -2.64 13 -4 13 C-4 9.7 -4 6.4 -4 3 C-3.67 3 -3.34 3 -3 3 C-3 5.31 -3 7.62 -3 10 C-2.01 10 -1.02 10 0 10 C0 6.7 0 3.4 0 0 Z " fill="#50505A" transform="translate(57,107)"/>
<path d="M0 0 C0.66 0 1.32 0 2 0 C2.66 1.65 3.32 3.3 4 5 C2.35 6.32 0.7 7.64 -1 9 C-1.33 8.67 -1.66 8.34 -2 8 C-1.28 1.28 -1.28 1.28 0 0 Z " fill="#E3E6EF" transform="translate(45,66)"/>
<path d="M0 0 C0.66 0 1.32 0 2 0 C2 2.31 2 4.62 2 7 C3.32 7.33 4.64 7.66 6 8 C4.02 8.99 4.02 8.99 2 10 C1.34 8.02 0.68 6.04 0 4 C-0.99 4.33 -1.98 4.66 -3 5 C-1.125 1.125 -1.125 1.125 0 0 Z " fill="#9B9DA2" transform="translate(47,62)"/>
<path d="M0 0 C0.66 0 1.32 0 2 0 C2 0.99 2 1.98 2 3 C2.99 3.33 3.98 3.66 5 4 C1.04 5.98 1.04 5.98 -3 8 C-3 7.01 -3 6.02 -3 5 C-2.34 4.67 -1.68 4.34 -1 4 C-1 3.01 -1 2.02 -1 1 C-0.67 0.67 -0.34 0.34 0 0 Z " fill="#474669" transform="translate(130,97)"/>
<path d="M0 0 C4.99911924 0.47610659 7.97832683 2.03162219 12 5 C10 6 10 6 7.6171875 5.22265625 C6.71226563 4.83980469 5.80734375 4.45695312 4.875 4.0625 C3.50988281 3.49208984 3.50988281 3.49208984 2.1171875 2.91015625 C1.41851562 2.60980469 0.71984375 2.30945313 0 2 C0 1.34 0 0.68 0 0 Z " fill="#666579" transform="translate(54,22)"/>
<path d="M0 0 C0.66 0 1.32 0 2 0 C2 2.97 2 5.94 2 9 C1.01 9 0.02 9 -1 9 C-1.09765625 2.84765625 -1.09765625 2.84765625 -1 1 C-0.67 0.67 -0.34 0.34 0 0 Z " fill="#D5D6E0" transform="translate(64,108)"/>
<path d="M0 0 C-3.12432397 2.52349243 -6.38060496 4.27256146 -10 6 C-10 4.68 -10 3.36 -10 2 C-6.5980513 -0.09350689 -3.94727588 -0.17942163 0 0 Z " fill="#474863" transform="translate(73,136)"/>
<path d="M0 0 C1.98 0.66 3.96 1.32 6 2 C6 2.66 6 3.32 6 4 C7.32 4.33 8.64 4.66 10 5 C9.67 5.66 9.34 6.32 9 7 C4.71193127 6.52354792 2.73352513 5.34097516 0 2 C0 1.34 0 0.68 0 0 Z " fill="#18172A" transform="translate(112,56)"/>
<path d="M0 0 C4.99275057 1.27721526 7.57611908 3.17330957 11 7 C8.5625 6.625 8.5625 6.625 6 6 C5.67 5.34 5.34 4.68 5 4 C2.47266765 3.34444881 2.47266765 3.34444881 0 3 C0 2.01 0 1.02 0 0 Z " fill="#747486" transform="translate(134,67)"/>
<path d="M0 0 C0.79921875 0.01804687 1.5984375 0.03609375 2.421875 0.0546875 C3.02515625 0.07789063 3.6284375 0.10109375 4.25 0.125 C4.25 0.455 4.25 0.785 4.25 1.125 C3.66992188 1.23457031 3.08984375 1.34414062 2.4921875 1.45703125 C-2.34746277 2.4393365 -6.40366116 3.67321911 -10.75 6.125 C-9.79632051 3.74080127 -9.17010128 2.39032713 -6.96875 1 C-4.47106748 0.01499844 -2.6723318 -0.07859799 0 0 Z " fill="#858499" transform="translate(31.75,9.875)"/>
<path d="M0 0 C2.79828356 0.38597015 3.8205884 0.80136573 5.75 2.9375 C7 5 7 5 7 7 C2.25 5.125 2.25 5.125 0 4 C0 2.68 0 1.36 0 0 Z " fill="#777990" transform="translate(70,52)"/>
<path d="M0 0 C0.66 0.33 1.32 0.66 2 1 C0.38405168 3.04119788 -1.2856382 5.04072937 -3 7 C-3.66 7 -4.32 7 -5 7 C-3.75023244 3.34683329 -3.32901247 2.21934164 0 0 Z " fill="#323235" transform="translate(23,14)"/>
<path d="M0 0 C0.33 0.66 0.66 1.32 1 2 C1.99 2.33 2.98 2.66 4 3 C-0.75 6 -0.75 6 -3 6 C-2.67 4.68 -2.34 3.36 -2 2 C-1.34 2 -0.68 2 0 2 C0 1.34 0 0.68 0 0 Z " fill="#4A4B6B" transform="translate(81,127)"/>
<path d="M0 0 C3.59391114 1.33488128 6.75490696 2.96022723 10 5 C9.01 5.495 9.01 5.495 8 6 C4.16917814 4.40382422 2.33343353 3.50015029 0 0 Z " fill="#242436" transform="translate(62,27)"/>
<path d="M0 0 C3.96 1.98 3.96 1.98 8 4 C4 5 4 5 1.75 4.0625 C1.1725 3.711875 0.595 3.36125 0 3 C0 2.01 0 1.02 0 0 Z " fill="#232033" transform="translate(75,34)"/>
<path d="M0 0 C4.40114397 0.50298788 6.71195019 2.08772731 10 5 C5.45251397 5.36871508 5.45251397 5.36871508 3.3125 3.625 C2.879375 3.08875 2.44625 2.5525 2 2 C1.34 1.34 0.68 0.68 0 0 Z " fill="#1E1D32" transform="translate(36,13)"/>
<path d="" fill="#FFFFFF" transform="translate(0,0)"/>
<path d="" fill="#FFFFFF" transform="translate(0,0)"/>
<path d="" fill="#FFFFFF" transform="translate(0,0)"/>
<path d="" fill="#FFFFFF" transform="translate(0,0)"/>
<path d="" fill="#FFFFFF" transform="translate(0,0)"/>
<path d="" fill="#FFFFFF" transform="translate(0,0)"/>
<path d="" fill="#FFFFFF" transform="translate(0,0)"/>
<path d="" fill="#FFFFFF" transform="translate(0,0)"/>
<path d="" fill="#FFFFFF" transform="translate(0,0)"/>
<path d="" fill="#FFFFFF" transform="translate(0,0)"/>
<path d="" fill="#FFFFFF" transform="translate(0,0)"/>
<path d="" fill="#FFFFFF" transform="translate(0,0)"/>
<path d="" fill="#FFFFFF" transform="translate(0,0)"/>
<path d="" fill="#FFFFFF" transform="translate(0,0)"/>
<path d="" fill="#FFFFFF" transform="translate(0,0)"/>
<path d="" fill="#FFFFFF" transform="translate(0,0)"/>
<path d="" fill="#FFFFFF" transform="translate(0,0)"/>
<path d="" fill="#FFFFFF" transform="translate(0,0)"/>
<path d="" fill="#FFFFFF" transform="translate(0,0)"/>
<path d="" fill="#FFFFFF" transform="translate(0,0)"/>
<path d="" fill="#FFFFFF" transform="translate(0,0)"/>
<path d="" fill="#FFFFFF" transform="translate(0,0)"/>
<path d="" fill="#FFFFFF" transform="translate(0,0)"/>
<path d="" fill="#FFFFFF" transform="translate(0,0)"/>
<path d="" fill="#FFFFFF" transform="translate(0,0)"/>
<path d="" fill="#FFFFFF" transform="translate(0,0)"/>
<path d="" fill="#FFFFFF" transform="translate(0,0)"/>
<path d="" fill="#FFFFFF" transform="translate(0,0)"/>
<path d="" fill="#FFFFFF" transform="translate(0,0)"/>
<path d="" fill="#FFFFFF" transform="translate(0,0)"/>
<path d="" fill="#FFFFFF" transform="translate(0,0)"/>
<path d="" fill="#FFFFFF" transform="translate(0,0)"/>
<path d="" fill="#FFFFFF" transform="translate(0,0)"/>
<path d="" fill="#FFFFFF" transform="translate(0,0)"/>
<path d="" fill="#FFFFFF" transform="translate(0,0)"/>
<path d="" fill="#FFFFFF" transform="translate(0,0)"/>
<path d="" fill="#FFFFFF" transform="translate(0,0)"/>
<path d="" fill="#FFFFFF" transform="translate(0,0)"/>
<path d="" fill="#FFFFFF" transform="translate(0,0)"/>
</svg>
